<?xml version="1.0" standalone="no"?>
<!DOCTYPE svg PUBLIC "-//W3C//DTD SVG 1.1//EN" "http://www.w3.org/Graphics/SVG/1.1/DTD/svg11.dtd" >
<svg xmlns="http://www.w3.org/2000/svg" xmlns:xlink="http://www.w3.org/1999/xlink" version="1.1">
<metadata></metadata>
<defs>
<font id="industrybold" horiz-adv-x="1368" >
<font-face units-per-em="2048" ascent="1638" descent="-410" />
<missing-glyph horiz-adv-x="491" />
<glyph unicode="&#xfb01;" horiz-adv-x="1329" d="M53 868v238h158v123q0 137 64 201.5t202 64.5h242v-213h-180q-25 0 -35 -10t-10 -35v-131h245v-238h-245v-868h-283v868h-158zM905 1229v266h299v-266h-299zM913 0v1106h283v-1106h-283z" />
<glyph unicode="&#xfb02;" horiz-adv-x="1320" d="M53 868v238h158v123q0 137 64 201.5t202 64.5h242v-213h-180q-25 0 -35 -10t-10 -35v-131h245v-238h-245v-868h-283v868h-158zM909 0v1495h283v-1495h-283z" />
<glyph horiz-adv-x="0" />
<glyph horiz-adv-x="682" />
<glyph unicode=" "  horiz-adv-x="491" />
<glyph unicode="&#x09;" horiz-adv-x="491" />
<glyph unicode="&#xa0;" horiz-adv-x="491" />
<glyph unicode="!" horiz-adv-x="565" d="M111 1434h344l-64 -936h-217zM119 0v319h327v-319h-327z" />
<glyph unicode="&#x22;" horiz-adv-x="933" d="M100 1434h320l-74 -525h-172zM514 1434h320l-74 -525h-172z" />
<glyph unicode="#" horiz-adv-x="1622" d="M68 358v258h272l76 232h-207v258h295l108 328h277l-109 -328h316l108 328h277l-109 -328h182v-258h-270l-76 -232h205v-258h-291l-121 -358h-276l121 358h-316l-120 -358h-277l121 358h-186zM616 616h316l78 232h-316z" />
<glyph unicode="$" horiz-adv-x="1282" d="M119 406v61h287v-74q0 -84 7.5 -105.5t32.5 -21.5h101v336l-129 29q-59 13 -100.5 29t-80.5 45.5t-62.5 71.5t-37.5 107t-14 152q0 151 32 239t93 123.5t162 35.5h108v208h236v-208h94q101 0 162 -35.5t93 -123.5t32 -239v-49h-287v62q0 78 -8 98t-33 20h-82v-317 l143 -31q59 -13 100.5 -29t80.5 -46t62.5 -73t37.5 -109.5t14 -155.5q0 -155 -32 -244.5t-92.5 -125.5t-161.5 -36h-123v-209h-236v209h-112q-152 0 -219.5 89t-67.5 317zM418 1049q0 -61 7 -91t20 -40t42 -17l60 -12v278h-88q-25 0 -33 -20t-8 -98zM725 266h102 q25 0 33 21.5t8 105.5q0 65 -7 96.5t-19.5 42t-42.5 17.5l-74 16v-299z" />
<glyph unicode="%" horiz-adv-x="1269" d="M82 1012v278q0 77 33.5 110.5t109.5 33.5h176q77 0 110.5 -34t33.5 -110v-278q0 -76 -33.5 -110t-110.5 -34h-176q-75 0 -109 34.5t-34 109.5zM184 0l664 1434h237l-663 -1434h-238zM231 1044q0 -22 7.5 -29t29.5 -7h90q22 0 29.5 7t7.5 29v213q0 22 -7.5 29.5t-29.5 7.5 h-90q-22 0 -29.5 -7.5t-7.5 -29.5v-213zM725 143v279q0 76 33.5 109.5t109.5 33.5h176q77 0 110.5 -33.5t33.5 -109.5v-279q0 -76 -33.5 -109.5t-110.5 -33.5h-176q-75 0 -109 34t-34 109zM874 176q0 -22 7.5 -29.5t29.5 -7.5h90q22 0 29.5 7.5t7.5 29.5v213q0 22 -7.5 29.5 t-29.5 7.5h-90q-22 0 -29.5 -7.5t-7.5 -29.5v-213z" />
<glyph unicode="&#x26;" horiz-adv-x="1347" d="M123 399q0 153 33 226t112 108q-72 39 -100.5 107.5t-28.5 210.5q0 212 68 297.5t219 85.5h377q146 0 216.5 -70.5t70.5 -216.5v-139h-295v118q0 23 -9 32t-32 9h-279q-17 0 -25 -8t-12 -40.5t-4 -102.5t4 -102.5t12 -41t25 -8.5h832v-262h-148v-315q0 -146 -70.5 -216.5 t-216.5 -70.5h-462q-101 0 -162 35.5t-93 123.5t-32 240zM418 434q0 -78 4.5 -114t12 -45t24.5 -9h364q23 0 32 9t9 32v295h-405q-17 0 -24.5 -9t-12 -45t-4.5 -114z" />
<glyph unicode="'" horiz-adv-x="520" d="M100 1434h320l-74 -525h-172z" />
<glyph unicode="(" horiz-adv-x="800" d="M170 70v1208q0 146 70.5 216.5t216.5 70.5h235v-271h-186q-23 0 -32 -9t-9 -32v-1159q0 -23 9 -32t32 -9h186v-270h-235q-146 0 -216.5 70.5t-70.5 216.5z" />
<glyph unicode=")" horiz-adv-x="800" d="M109 53h186q23 0 32 9t9 32v1159q0 23 -9 32t-32 9h-186v271h235q146 0 216.5 -70.5t70.5 -216.5v-1208q0 -146 -70.5 -216.5t-216.5 -70.5h-235v270z" />
<glyph unicode="*" horiz-adv-x="860" d="M35 1063l69 223l271 -153l-62 301h234l-62 -301l267 151l73 -221l-307 -35l225 -207l-188 -137l-127 281l-125 -279l-190 135l225 209z" />
<glyph unicode="+" horiz-adv-x="1040" d="M115 633v250h280v260h250v-260h281v-250h-281v-260h-250v260h-280z" />
<glyph unicode="," horiz-adv-x="512" d="M66 -274l157 274h-131v319h328v-221q0 -59 -21.5 -104.5t-76.5 -108.5l-142 -159h-114z" />
<glyph unicode="-" horiz-adv-x="905" d="M104 543v262h697v-262h-697z" />
<glyph unicode="." horiz-adv-x="512" d="M92 0v319h328v-319h-328z" />
<glyph unicode="/" horiz-adv-x="1069" d="M29 -143l725 1720h286l-725 -1720h-286z" />
<glyph unicode="0" horiz-adv-x="1316" d="M127 287v860q0 146 70.5 216.5t216.5 70.5h489q146 0 216.5 -70.5t70.5 -216.5v-860q0 -146 -70.5 -216.5t-216.5 -70.5h-489q-146 0 -216.5 70.5t-70.5 216.5zM422 311q0 -23 9 -32t32 -9h391q23 0 32 9t9 32v811q0 23 -9 32t-32 9h-391q-23 0 -32 -9t-9 -32v-811z" />
<glyph unicode="1" horiz-adv-x="854" d="M82 1032v246l350 156h234v-1434h-295v1126z" />
<glyph unicode="2" horiz-adv-x="1236" d="M119 0h1007v270h-712v148q0 19 4 31.5t18 22.5t23.5 14t36.5 14l331 123q72 26 120.5 50t91 58.5t63 80.5t20.5 106v229q0 146 -70 216.5t-216 70.5h-414q-146 0 -216.5 -70.5t-70.5 -216.5v-160h287v135q0 23 9 32t32 9h323q23 0 32 -9t9 -32v-139q0 -19 -4 -31.5 t-18 -22.5t-23.5 -14t-36.5 -14l-331 -123q-72 -26 -120.5 -50t-91 -58.5t-63 -80.5t-20.5 -106v-483z" />
<glyph unicode="3" horiz-adv-x="1228" d="M94 399v43h295v-8q0 -78 4.5 -114t12 -45t24.5 -9h361q17 0 24.5 9t11.5 44.5t4 114.5t-4 114.5t-11.5 44.5t-24.5 9h-342v262h325q17 0 25 8.5t12 41t4 102.5t-4 102.5t-12 40.5t-25 8h-328q-17 0 -24.5 -8.5t-11.5 -40.5t-4 -102v-25h-295v47q0 150 31.5 237.5 t92.5 123t162 35.5h426q151 0 219 -85.5t68 -297.5q0 -145 -28.5 -212t-100.5 -106q79 -35 112 -107t33 -227q0 -152 -32 -240t-92.5 -123.5t-161.5 -35.5h-459q-101 0 -162 35.5t-93 123.5t-32 240z" />
<glyph unicode="4" horiz-adv-x="1300" d="M45 537l733 897h271v-877h206v-262h-206v-295h-287v295h-656zM406 557h356v449z" />
<glyph unicode="5" horiz-adv-x="1247" d="M127 287v157h295v-133q0 -23 9 -32t32 -9h330q23 0 32 9t9 32v330q0 24 -15.5 32.5t-68.5 8.5q-108 0 -173 -15.5t-135 -52.5l-295 74v746h940v-271h-645v-391q43 59 79.5 92t106.5 56.5t171 23.5q176 0 252.5 -69t76.5 -218v-362q0 -295 -294 -295h-420 q-146 0 -216.5 70.5t-70.5 216.5z" />
<glyph unicode="6" horiz-adv-x="1267" d="M127 287v860q0 146 70.5 216.5t216.5 70.5h428q146 0 216 -70.5t70 -216.5v-135h-294v110q0 41 -41 41h-330q-41 0 -41 -41v-389q31 42 60.5 70.5t73.5 53t105.5 36.5t143.5 12q183 0 261.5 -69t78.5 -218v-331q0 -146 -70.5 -216.5t-216.5 -70.5h-444 q-146 0 -216.5 70.5t-70.5 216.5zM422 311q0 -23 9 -32t32 -9h346q23 0 32 9t9 32v291q0 25 -17 33t-79 8q-117 0 -190 -16t-142 -52v-264z" />
<glyph unicode="7" horiz-adv-x="1179" d="M61 1167v267h1053v-211l-618 -1223h-324l598 1167h-709z" />
<glyph unicode="8" horiz-adv-x="1269" d="M102 399q0 106 16 172t46.5 102.5t83.5 59.5q-72 39 -100.5 106t-28.5 212q0 212 68 297.5t219 85.5h458q151 0 219 -85.5t68 -297.5q0 -145 -28.5 -212t-100.5 -106q79 -35 112 -107t33 -227q0 -152 -32 -240t-92.5 -123.5t-161.5 -35.5h-492q-101 0 -162 35.5 t-93 123.5t-32 240zM397 434q0 -78 4.5 -114t12 -45t24.5 -9h393q17 0 24.5 9t12 45t4.5 114t-4.5 114t-12 45t-24.5 9h-393q-17 0 -24.5 -9t-12 -45t-4.5 -114zM414 1016q0 -70 4 -102.5t12 -41t25 -8.5h360q17 0 25 8.5t12 41t4 102.5t-4 102.5t-12 40.5t-25 8h-360 q-17 0 -25 -8t-12 -40.5t-4 -102.5z" />
<glyph unicode="9" horiz-adv-x="1267" d="M123 821v326q0 146 70.5 216.5t216.5 70.5h444q146 0 216.5 -70.5t70.5 -216.5v-860q0 -146 -70.5 -216.5t-216.5 -70.5h-428q-146 0 -216.5 70.5t-70.5 216.5v135h295v-111q0 -41 41 -41h330q41 0 41 41v396q-31 -42 -60.5 -70.5t-73.5 -53t-105 -36.5t-142 -12 q-184 0 -263 68.5t-79 217.5zM418 838q0 -25 17 -33t79 -8q118 0 191 15.5t141 51.5v258q0 23 -9 32t-32 9h-346q-23 0 -32 -9t-9 -32v-284z" />
<glyph unicode=":" horiz-adv-x="512" d="M92 0v319h328v-319h-328zM92 786v320h328v-320h-328z" />
<glyph unicode=";" horiz-adv-x="512" d="M66 -274l157 274h-131v319h328v-221q0 -59 -21.5 -104.5t-76.5 -108.5l-142 -159h-114zM92 786v320h328v-320h-328z" />
<glyph unicode="&#x3c;" horiz-adv-x="1040" d="M106 631l803 -441v254l-536 299l536 301v254l-803 -442v-225z" />
<glyph unicode="=" horiz-adv-x="1040" d="M115 422v262h811v-262h-811zM115 848v262h811v-262h-811z" />
<glyph unicode="&#x3e;" horiz-adv-x="1040" d="M131 190l803 441v225l-803 442v-254l537 -301l-537 -299v-254z" />
<glyph unicode="?" horiz-adv-x="1155" d="M35 983v164q0 146 70.5 216.5t216.5 70.5h475q146 0 216 -70.5t70 -216.5v-207q0 -21 -4 -41t-16 -39t-21 -33t-31.5 -33t-34 -29t-42.5 -30t-43 -27.5t-49.5 -29.5t-48.5 -29l-82 -49q-39 -24 -54.5 -37.5t-15.5 -32.5v-92h-295v154q0 20 5 39t17 38t23 34t33 34t36 31 t43 31.5t44 28.5t48 30t46 29l78 49q39 24 54 38t15 32v116q0 23 -8.5 32t-31.5 9h-377q-23 0 -32 -9t-9 -32v-139h-295zM346 0v295h295v-295h-295z" />
<glyph unicode="@" horiz-adv-x="2004" d="M166 -41v1188q0 146 70.5 216.5t216.5 70.5h1099q146 0 216.5 -70.5t70.5 -216.5v-764q0 -146 -70.5 -216.5t-216.5 -70.5h-368l-41 148q-25 -34 -45 -55.5t-56 -47.5t-86.5 -39.5t-115.5 -13.5q-155 0 -227 70t-72 217v356q0 147 72 217t227 70q65 0 115.5 -13.5 t86.5 -39.5t56 -47.5t45 -55.5l41 148h246v-758h118q51 0 66.5 26t15.5 109v772q0 41 -18.5 59.5t-59.5 18.5h-1099q-41 0 -59.5 -18.5t-18.5 -59.5v-1212q0 -41 18.5 -59.5t59.5 -18.5h1046v-197h-1046q-146 0 -216.5 70.5t-70.5 216.5zM827 375q0 -28 14 -38.5t56 -10.5 q133 0 246 80v294q-113 80 -246 80q-42 0 -56 -10.5t-14 -38.5v-356z" />
<glyph unicode="A" d="M33 0l436 1434h430l436 -1434h-323l-88 311h-492l-88 -311h-311zM508 582h340l-170 602z" />
<glyph unicode="B" horiz-adv-x="1316" d="M162 0v1434h749q151 0 219 -85.5t68 -297.5q0 -142 -28.5 -210.5t-100.5 -107.5q79 -35 112 -108t33 -226q0 -152 -32 -240t-92.5 -123.5t-161.5 -35.5h-766zM457 266h422q17 0 24.5 9t12 45.5t4.5 115.5t-4.5 115.5t-12 45.5t-24.5 9h-422v-340zM457 860h405 q17 0 25 8.5t12 41.5t4 104t-4.5 103.5t-12 41t-24.5 8.5h-405v-307z" />
<glyph unicode="C" horiz-adv-x="1275" d="M127 287v860q0 146 70.5 216.5t216.5 70.5h475q146 0 216.5 -70.5t70.5 -216.5v-234h-295v209q0 23 -9 32t-32 9h-377q-23 0 -32 -9t-9 -32v-811q0 -23 9 -32t32 -9h377q23 0 32 9t9 32v209h295v-233q0 -146 -70.5 -216.5t-216.5 -70.5h-475q-146 0 -216.5 70.5 t-70.5 216.5z" />
<glyph unicode="D" horiz-adv-x="1359" d="M162 0v1434h784q146 0 216.5 -70.5t70.5 -216.5v-860q0 -146 -70.5 -216.5t-216.5 -70.5h-784zM457 270h440q23 0 32 9t9 32v811q0 23 -9 32t-32 9h-440v-893z" />
<glyph unicode="E" horiz-adv-x="1224" d="M162 0v1434h964v-271h-669v-297h542v-266h-542v-330h669v-270h-964z" />
<glyph unicode="F" horiz-adv-x="1187" d="M162 0v1434h964v-271h-669v-309h542v-266h-542v-588h-295z" />
<glyph unicode="G" horiz-adv-x="1314" d="M127 287v860q0 146 70.5 216.5t216.5 70.5h493q146 0 216.5 -70.5t70.5 -216.5v-189h-295v164q0 23 -9 32t-32 9h-395q-23 0 -32 -9t-9 -32v-811q0 -23 9 -32t32 -9h395q23 0 32 9t9 32v221h-270v259h565v-504q0 -146 -70.5 -216.5t-216.5 -70.5h-493q-146 0 -216.5 70.5 t-70.5 216.5z" />
<glyph unicode="H" horiz-adv-x="1421" d="M162 0v1434h295v-566h508v566h295v-1434h-295v598h-508v-598h-295z" />
<glyph unicode="I" horiz-adv-x="618" d="M162 0v1434h295v-1434h-295z" />
<glyph unicode="J" horiz-adv-x="1171" d="M55 287v319h295v-295q0 -23 9 -32t32 -9h297q23 0 32 9t9 32v1123h295v-1147q0 -146 -70.5 -216.5t-216.5 -70.5h-395q-146 0 -216.5 70.5t-70.5 216.5z" />
<glyph unicode="K" horiz-adv-x="1349" d="M162 0v1434h291v-672l510 672h346l-449 -566l471 -868h-332l-337 621l-209 -265v-356h-291z" />
<glyph unicode="L" horiz-adv-x="1136" d="M162 0v1434h295v-1164h618v-270h-913z" />
<glyph unicode="M" horiz-adv-x="1732" d="M162 0v1434h323l381 -844l381 844h324v-1434h-291v913l-309 -723h-217l-310 723v-913h-282z" />
<glyph unicode="N" horiz-adv-x="1460" d="M162 0v1434h307l543 -924v924h286v-1434h-286l-563 956v-956h-287z" />
<glyph unicode="O" horiz-adv-x="1353" d="M127 287v860q0 146 70.5 216.5t216.5 70.5h526q146 0 216.5 -70.5t70.5 -216.5v-860q0 -146 -70.5 -216.5t-216.5 -70.5h-526q-146 0 -216.5 70.5t-70.5 216.5zM422 311q0 -23 9 -32t32 -9h428q23 0 32 9t9 32v811q0 23 -9 32t-32 9h-428q-23 0 -32 -9t-9 -32v-811z" />
<glyph unicode="P" horiz-adv-x="1282" d="M162 0v1434h758q146 0 216 -70.5t70 -216.5v-381q0 -146 -70 -216.5t-216 -70.5h-463v-479h-295zM457 750h413q23 0 32 9t9 32v331q0 23 -9 32t-32 9h-413v-413z" />
<glyph unicode="Q" horiz-adv-x="1329" d="M127 287v860q0 146 70.5 216.5t216.5 70.5h501q146 0 216.5 -70.5t70.5 -216.5v-860q0 -146 -70.5 -216.5t-216.5 -70.5h-102v-262h-295v262h-104q-146 0 -216.5 70.5t-70.5 216.5zM422 311q0 -23 9 -32t32 -9h403q23 0 32 9t9 32v811q0 23 -9 32t-32 9h-403 q-23 0 -32 -9t-9 -32v-811z" />
<glyph unicode="R" horiz-adv-x="1331" d="M162 0v1434h756q146 0 216 -70.5t70 -216.5v-346q0 -242 -198 -279l243 -522h-317l-238 506h-237v-506h-295zM457 768h411q23 0 32 9t9 32v317q0 23 -9 32t-32 9h-411v-399z" />
<glyph unicode="S" horiz-adv-x="1282" d="M119 287v180h287v-160q0 -23 8.5 -32t31.5 -9h381q23 0 32 9t9 32v172q0 33 -14 47t-55 23l-381 82q-71 15 -122.5 37t-92 56t-60.5 84.5t-20 117.5v221q0 146 70.5 216.5t216.5 70.5h442q146 0 216.5 -70.5t70.5 -216.5v-164h-287v143q0 23 -9 32t-32 9h-352 q-23 0 -32 -9t-9 -32v-155q0 -33 14 -47t55 -23l381 -82q71 -15 122.5 -37t92 -56t60.5 -84.5t20 -117.5v-237q0 -146 -70 -216.5t-216 -70.5h-471q-146 0 -216.5 70.5t-70.5 216.5z" />
<glyph unicode="T" horiz-adv-x="1175" d="M51 1167v267h1073v-267h-389v-1167h-295v1167h-389z" />
<glyph unicode="U" d="M147 287v1147h295v-1123q0 -23 9 -32t32 -9h402q23 0 32 9t9 32v1123h295v-1147q0 -146 -70.5 -216.5t-216.5 -70.5h-500q-146 0 -216.5 70.5t-70.5 216.5z" />
<glyph unicode="V" horiz-adv-x="1306" d="M37 1434h323l297 -1108l297 1108h316l-445 -1434h-344z" />
<glyph unicode="W" horiz-adv-x="1900" d="M37 1434h307l223 -1053l264 1053h250l265 -1053l223 1053h295l-361 -1434h-311l-236 934l-235 -934h-326z" />
<glyph unicode="X" horiz-adv-x="1294" d="M29 0l446 729l-434 705h332l280 -463l283 463h317l-446 -705l459 -729h-332l-295 483l-293 -483h-317z" />
<glyph unicode="Y" horiz-adv-x="1253" d="M12 1434h320l297 -639l297 639h315l-467 -945v-489h-295v489z" />
<glyph unicode="Z" horiz-adv-x="1224" d="M94 0v221l672 950h-635v263h999v-222l-671 -950h667v-262h-1032z" />
<glyph unicode="[" horiz-adv-x="780" d="M170 -217v1782h502v-271h-207v-1241h207v-270h-502z" />
<glyph unicode="\" horiz-adv-x="1069" d="M29 1577h286l725 -1720h-286z" />
<glyph unicode="]" horiz-adv-x="780" d="M109 53h206v1241h-206v271h501v-1782h-501v270z" />
<glyph unicode="^" horiz-adv-x="1458" d="M135 590l443 885h303l442 -885h-299l-295 590l-295 -590h-299z" />
<glyph unicode="_" horiz-adv-x="1179" d="M12 -94h1155v-254h-1155v254z" />
<glyph unicode="`" horiz-adv-x="849" d="M143 1864l306 -295h237l-184 295h-359z" />
<glyph unicode="a" horiz-adv-x="1134" d="M86 309q0 165 72.5 242.5t214.5 97.5q194 26 356 33v147q0 25 -10 35t-35 10h-238q-25 0 -35 -10t-10 -35v-65h-278v76q0 136 64.5 201t201.5 65h356q137 0 202 -65t65 -201v-840h-283v172q-33 -45 -58.5 -72t-65.5 -55t-94.5 -40.5t-127.5 -12.5q-160 0 -228.5 73 t-68.5 244zM365 338q0 -66 13.5 -85.5t59.5 -19.5q48 0 88 6t79.5 21.5t59 25t64.5 33.5v183l-293 -56q-42 -8 -56.5 -28t-14.5 -80z" />
<glyph unicode="b" horiz-adv-x="1189" d="M133 0v1495h283v-553q32 44 58.5 71t67 52.5t97 37t133.5 11.5q166 0 236.5 -67t70.5 -220v-548q0 -153 -70.5 -220t-236.5 -67q-77 0 -133.5 11.5t-97 37t-67 52.5t-58.5 71v-164h-283zM416 311q66 -35 131 -50t168 -15q52 0 67 12.5t15 52.5v484q0 40 -15 52.5 t-67 12.5q-103 0 -168 -15t-131 -50v-484z" />
<glyph unicode="c" horiz-adv-x="1087" d="M111 266v574q0 136 64.5 201t201.5 65h354q137 0 201.5 -65t64.5 -201v-140h-282v115q0 25 -10 35t-35 10h-232q-25 0 -35 -10t-10 -35v-524q0 -25 10 -35t35 -10h232q25 0 35 10t10 35v115h282v-140q0 -136 -64.5 -201t-201.5 -65h-354q-137 0 -201.5 65t-64.5 201z" />
<glyph unicode="d" horiz-adv-x="1189" d="M111 279v548q0 153 70.5 220t236.5 67q77 0 133.5 -11.5t97 -37t67 -52.5t58.5 -71v553h283v-1495h-283v164q-32 -44 -58.5 -71t-67 -52.5t-97 -37t-133.5 -11.5q-166 0 -236.5 67t-70.5 220zM393 311q0 -40 15 -52.5t67 -12.5q103 0 168 15t131 50v484q-66 35 -131 50 t-168 15q-52 0 -67 -12.5t-15 -52.5v-484z" />
<glyph unicode="e" horiz-adv-x="1128" d="M111 266v574q0 136 64.5 201t201.5 65h383q136 0 201 -65t65 -201v-367h-633v-199q0 -25 10 -35t35 -10h260q25 0 35 10t10 35v86h283v-94q0 -136 -65 -201t-201 -65h-383q-137 0 -201.5 65t-64.5 201zM393 664h350v167q0 25 -10 35.5t-35 10.5h-260q-25 0 -35 -10.5 t-10 -35.5v-167z" />
<glyph unicode="f" horiz-adv-x="780" d="M53 868v238h158v123q0 137 64 201.5t202 64.5h242v-213h-180q-25 0 -35 -10t-10 -35v-131h245v-238h-245v-868h-283v868h-158z" />
<glyph unicode="g" horiz-adv-x="1189" d="M111 328v499q0 153 70.5 220t236.5 67q77 0 133.5 -11.5t97 -37t67 -52.5t58.5 -71v164h283v-1167q0 -137 -65 -202t-201 -65h-537v226h475q25 0 35 10t10 35v270q-32 -44 -58.5 -71t-67 -52.5t-97 -37t-133.5 -11.5q-166 0 -236.5 67t-70.5 220zM393 340 q0 -26 15.5 -35.5t66.5 -9.5q103 0 168 15t131 50v435q-66 35 -131 50t-168 15q-51 0 -66.5 -9.5t-15.5 -35.5v-475z" />
<glyph unicode="h" horiz-adv-x="1185" d="M133 0v1495h283v-551q32 44 58 71t66.5 52.5t95 37t128.5 11.5q160 0 229.5 -65t69.5 -209v-842h-283v809q0 31 -14 42t-57 11q-99 0 -163 -15t-130 -50v-797h-283z" />
<glyph unicode="i" horiz-adv-x="548" d="M125 1229v266h299v-266h-299zM133 0v1106h283v-1106h-283z" />
<glyph unicode="j" horiz-adv-x="548" d="M-66 -180l162 86q37 18 37 49v1151h283v-1165q0 -64 -17 -109.5t-53.5 -75.5t-82 -48t-113.5 -32l-216 -45v189zM125 1229v266h299v-266h-299z" />
<glyph unicode="k" horiz-adv-x="1130" d="M133 0v1495h279v-868l344 479h334l-345 -428l365 -678l-303 -2l-240 459l-155 -195v-262h-279z" />
<glyph unicode="l" horiz-adv-x="540" d="M129 0v1495h283v-1495h-283z" />
<glyph unicode="m" horiz-adv-x="1775" d="M133 0v1106h283v-160q42 59 78 92t99 56.5t150 23.5q127 0 195.5 -44t87.5 -138q63 91 137 136.5t199 45.5q154 0 222.5 -65.5t68.5 -208.5v-844h-283v811q0 31 -12.5 42t-50.5 11q-85 0 -146.5 -15t-126.5 -50v-799h-282v811q0 31 -13 42t-51 11q-85 0 -146 -15 t-126 -50v-799h-283z" />
<glyph unicode="n" horiz-adv-x="1185" d="M133 0v1106h283v-162q32 44 58 71t66.5 52.5t95 37t128.5 11.5q160 0 229.5 -65t69.5 -209v-842h-283v809q0 31 -14 42t-57 11q-99 0 -163 -15t-130 -50v-797h-283z" />
<glyph unicode="o" horiz-adv-x="1148" d="M111 266v574q0 136 64.5 201t201.5 65h395q136 0 201 -65t65 -201v-574q0 -136 -65 -201t-201 -65h-395q-137 0 -201.5 65t-64.5 201zM393 291q0 -25 10 -35t35 -10h273q25 0 35 10t10 35v524q0 25 -10 35t-35 10h-273q-25 0 -35 -10t-10 -35v-524z" />
<glyph unicode="p" horiz-adv-x="1189" d="M133 -328v1434h283v-164q32 44 58.5 71t67 52.5t97 37t133.5 11.5q166 0 236.5 -67t70.5 -220v-548q0 -153 -70.5 -220t-236.5 -67q-77 0 -133.5 11.5t-97 37t-67 52.5t-58.5 71v-492h-283zM416 311q66 -35 131 -50t168 -15q52 0 67 12.5t15 52.5v484q0 40 -15 52.5 t-67 12.5q-103 0 -168 -15t-131 -50v-484z" />
<glyph unicode="q" horiz-adv-x="1189" d="M111 279v548q0 153 70.5 220t236.5 67q77 0 133.5 -11.5t97 -37t67 -52.5t58.5 -71v164h283v-1434h-283v492q-32 -44 -58.5 -71t-67 -52.5t-97 -37t-133.5 -11.5q-166 0 -236.5 67t-70.5 220zM393 311q0 -40 15 -52.5t67 -12.5q103 0 168 15t131 50v484q-66 35 -131 50 t-168 15q-52 0 -67 -12.5t-15 -52.5v-484z" />
<glyph unicode="r" horiz-adv-x="864" d="M133 0v1106h283v-172q42 58 77.5 91.5t96 57t141.5 23.5h88v-266h-139q-79 0 -139 -15.5t-125 -50.5v-774h-283z" />
<glyph unicode="s" horiz-adv-x="1077" d="M88 266v101h279v-101q0 -25 10 -35t35 -10h254q26 0 35.5 17.5t9.5 76.5q0 68 -11 87.5t-51 25.5l-305 49q-93 15 -142.5 43.5t-74.5 89t-25 168.5q0 179 63.5 253.5t203.5 74.5h329q137 0 202 -65t65 -201v-82h-279v82q0 25 -10 35t-35 10h-215q-26 0 -35.5 -16 t-9.5 -68q0 -61 10.5 -79t50.5 -24l306 -49q93 -15 142 -43.5t74 -91.5t25 -176q0 -186 -63 -262t-203 -76h-369q-136 0 -201 65t-65 201z" />
<glyph unicode="t" horiz-adv-x="790" d="M41 877v229h168v266h274v-266h242v-229h-238v-598q0 -25 10 -35.5t35 -10.5h193v-233h-254q-137 0 -201.5 65t-64.5 201v611h-164z" />
<glyph unicode="u" horiz-adv-x="1185" d="M123 264v842h283v-809q0 -31 14 -42t57 -11q99 0 163 15t130 50v797h283v-1106h-283v162q-32 -44 -58 -71t-66.5 -52.5t-95 -37t-128.5 -11.5q-160 0 -229.5 65t-69.5 209z" />
<glyph unicode="v" horiz-adv-x="1097" d="M31 1106h303l221 -854l221 854h291l-362 -1106h-312z" />
<glyph unicode="w" horiz-adv-x="1609" d="M31 1106h303l151 -801l193 801h274l193 -801l151 801h283l-289 -1106h-295l-180 780l-180 -780h-295z" />
<glyph unicode="x" horiz-adv-x="1081" d="M29 0l358 561l-354 545h307l207 -334l207 334h286l-352 -547l365 -559h-308l-215 342l-215 -342h-286z" />
<glyph unicode="y" horiz-adv-x="1114" d="M31 1106h303l229 -809l230 809h290l-497 -1434h-273l107 328z" />
<glyph unicode="z" horiz-adv-x="985" d="M66 0v201l499 667h-483v238h823v-197l-499 -671h514v-238h-854z" />
<glyph unicode="{" horiz-adv-x="925" d="M88 553v254h166q23 0 32 9t9 32v430q0 146 70.5 216.5t216.5 70.5h235v-271h-186q-23 0 -32 -9t-9 -32v-385q0 -115 -111 -188q111 -73 111 -188v-398q0 -23 9 -32t32 -9h186v-270h-235q-146 0 -216.5 70.5t-70.5 216.5v442q0 23 -9 32t-32 9h-166z" />
<glyph unicode="|" horiz-adv-x="720" d="M225 -442v2013h271v-2013h-271z" />
<glyph unicode="}" horiz-adv-x="925" d="M109 53h186q23 0 32 9t9 32v398q0 115 110 188q-110 73 -110 188v385q0 23 -9 32t-32 9h-186v271h235q146 0 216.5 -70.5t70.5 -216.5v-430q0 -23 9 -32t32 -9h166v-254h-166q-23 0 -32 -9t-9 -32v-442q0 -146 -70.5 -216.5t-216.5 -70.5h-235v270z" />
<glyph unicode="~" horiz-adv-x="1040" d="M135 541h164v39q0 25 11.5 34t35.5 9q40 0 183.5 -47.5t203.5 -47.5q75 0 123.5 58.5t48.5 171.5v51h-168v-39q0 -43 -43 -43q-38 0 -173.5 47t-201.5 47q-77 0 -130.5 -58.5t-53.5 -170.5v-51z" />
<glyph unicode="&#xa1;" horiz-adv-x="565" d="M111 -328l63 936h217l64 -936h-344zM119 786v320h327v-320h-327z" />
<glyph unicode="&#xa2;" horiz-adv-x="1196" d="M117 483v480q0 146 70 216t216 70h86v185h234v-185h74q146 0 216 -70t70 -216v-115h-266v110q0 23 -9 32t-32 9h-69v-553h69q23 0 32 9t9 32v111h266v-115q0 -146 -70 -216t-216 -70h-74v-197h-234v197h-86q-146 0 -216 70t-70 216zM383 487q0 -23 9 -32t32 -9h82v553 h-82q-23 0 -32 -9t-9 -32v-471z" />
<glyph unicode="&#xa3;" horiz-adv-x="1284" d="M51 0v270h127q23 0 32 9t9 32v269h-168v266h168v301q0 146 70.5 216.5t216.5 70.5h379q146 0 216 -70.5t70 -216.5v-189h-294v164q0 23 -9 32t-32 9h-281q-23 0 -32 -9t-9 -32v-276h295v-266h-295v-310h666v-270h-1129z" />
<glyph unicode="&#xa4;" horiz-adv-x="1230" d="M35 297l168 168q-10 52 -10 104v328q0 50 10 98l-168 168l174 176l166 -165q52 10 104 10h273q52 0 104 -10l166 165l174 -176l-168 -168q10 -48 10 -98v-328q0 -52 -10 -104l168 -168l-174 -176l-172 172q-48 -10 -98 -10h-273q-50 0 -98 10l-172 -172zM442 557 q0 -23 9 -32t32 -9h265q23 0 31.5 9t8.5 32v352q0 23 -8.5 32t-31.5 9h-265q-23 0 -32 -9t-9 -32v-352z" />
<glyph unicode="&#xa5;" horiz-adv-x="1253" d="M12 1434h320l297 -639l297 639h315l-367 -742h213v-151h-288l-25 -52v-51h313v-151h-313v-287h-295v287h-313v151h313v51l-24 52h-289v151h213z" />
<glyph unicode="&#xa6;" horiz-adv-x="720" d="M225 328h271v-770h-271v770zM225 760v811h271v-811h-271z" />
<glyph unicode="&#xa7;" horiz-adv-x="1099" d="M96 156v22h279v-18q0 -66 8 -84.5t33 -18.5h254q24 0 32.5 16t8.5 74q0 51 -8.5 69.5t-28.5 21.5l-326 53q-126 21 -181.5 90t-55.5 235q0 87 13.5 145t31 83.5t47.5 52.5q-26 21 -39.5 38t-26 58t-12.5 103q0 181 69 259.5t218 78.5h278q149 0 218 -78t69 -258v-8h-279 v4q0 66 -8 84t-33 18h-213q-24 0 -32.5 -15t-8.5 -67q0 -47 8.5 -64t28.5 -20l326 -53q60 -10 98.5 -26t73 -51.5t50.5 -98.5t16 -158q0 -88 -13.5 -148t-29 -84.5t-41.5 -48.5q23 -19 35.5 -35.5t23 -59t10.5 -107.5q0 -191 -69 -272t-218 -81h-319q-149 0 -218 80.5 t-69 268.5zM389 659q0 -87 8 -113.5t29 -29.5l256 -41q15 -2 23.5 5.5t14 38.5t5.5 91q0 86 -8 112.5t-29 29.5l-254 41q-16 2 -25 -5t-14.5 -38t-5.5 -91z" />
<glyph unicode="&#xa8;" horiz-adv-x="1310" d="M315 1569v262h267v-262h-267zM729 1569v262h266v-262h-266z" />
<glyph unicode="&#xa9;" horiz-adv-x="1734" d="M166 287v860q0 146 70.5 216.5t216.5 70.5h829q146 0 216.5 -70.5t70.5 -216.5v-860q0 -146 -70.5 -216.5t-216.5 -70.5h-829q-146 0 -216.5 70.5t-70.5 216.5zM354 283q0 -55 26 -81t81 -26h813q55 0 80.5 25.5t25.5 81.5v868q0 55 -25 80.5t-81 25.5h-813 q-56 0 -81.5 -25.5t-25.5 -80.5v-868zM520 479v475q0 107 51 158t158 51h279q107 0 158 -51t51 -158v-139h-213v113q0 23 -9 32t-32 9h-189q-23 0 -32 -9t-9 -32v-422q0 -23 9 -32t32 -9h189q23 0 32 9t9 32v112h213v-139q0 -107 -51 -158t-158 -51h-279q-107 0 -158 51 t-51 158z" />
<glyph unicode="&#xaa;" horiz-adv-x="794" d="M96 924q0 110 45.5 153.5t153.5 59.5q81 13 221 20v92q0 25 -24 25h-173q-24 0 -24 -25v-45h-176v45q0 95 44.5 140t139.5 45h211q94 0 139 -45t45 -140v-534h-182v100q-30 -51 -73.5 -78.5t-129.5 -27.5q-118 0 -167.5 49t-49.5 166zM113 446v158h585v-158h-585z M279 944q0 -46 9.5 -56.5t49.5 -10.5q112 0 180 45v131l-215 -41q-15 -3 -19.5 -14t-4.5 -54z" />
<glyph unicode="&#xab;" horiz-adv-x="1093" d="M31 666v106l262 373h295l-301 -426l301 -424h-295zM489 666v106l263 373h295l-302 -426l302 -424h-295z" />
<glyph unicode="&#xad;" horiz-adv-x="905" d="M104 543v262h697v-262h-697z" />
<glyph unicode="&#xae;" horiz-adv-x="876" d="M102 807v496q0 67 32 99t99 32h410q67 0 99 -32t32 -99v-496q0 -67 -32 -99t-99 -32h-410q-67 0 -99 32t-32 99zM178 801q0 -29 12 -41t41 -12h414q29 0 41 12t12 41v508q0 29 -12 41t-41 12h-414q-29 0 -41 -12t-12 -41v-508zM285 831v447h223q46 0 67 -21t21 -67v-96 q0 -80 -68 -86l74 -177h-84l-74 177h-82v-177h-77zM365 1079h133q12 0 16 4.5t4 16.5v86q0 12 -4 16t-16 4h-133v-127z" />
<glyph unicode="&#xaf;" horiz-adv-x="1253" d="M328 1589v230h565v-230h-565z" />
<glyph unicode="&#xb0;" horiz-adv-x="659" d="M117 1122v189q0 63 30 93t93 30h180q63 0 93 -30t30 -93v-189q0 -63 -30 -93t-93 -30h-180q-63 0 -93 30t-30 93zM248 1143q0 -19 7 -26t26 -7h98q19 0 26 7t7 26v147q0 19 -7 26t-26 7h-98q-19 0 -26 -7t-7 -26v-147z" />
<glyph unicode="&#xb1;" horiz-adv-x="1040" d="M115 164v246h811v-246h-811zM115 782v250h280v260h250v-260h281v-250h-281v-260h-250v260h-280z" />
<glyph unicode="&#xb2;" horiz-adv-x="739" d="M70 848h608v184h-414v64q0 24 41 34l195 58q36 10 59.5 19.5t54 27.5t46.5 47t16 68v125q0 97 -43.5 140.5t-140.5 43.5h-228q-96 0 -140 -44t-44 -140v-70h186v45q0 15 5 20t20 5h166q15 0 19.5 -5t4.5 -20v-49q0 -15 -8 -21t-33 -14l-194 -57q-43 -13 -67 -22.5 t-53 -28t-42.5 -46t-13.5 -65.5v-299z" />
<glyph unicode="&#xb3;" horiz-adv-x="739" d="M51 1085v19h195v-4q0 -51 4 -62.5t20 -11.5h187q16 0 20 11.5t4 62.5q0 52 -4 64t-20 12h-187v170h176q16 0 20.5 11t4.5 56t-4.5 56.5t-20.5 11.5h-167q-16 0 -20.5 -11.5t-4.5 -56.5v-10h-193v22q0 129 43.5 181.5t141.5 52.5h233q98 0 141.5 -52t43.5 -182 q0 -75 -15.5 -107t-60.5 -56q49 -22 67.5 -59t18.5 -118q0 -132 -43 -184.5t-142 -52.5h-253q-99 0 -142 52t-43 185z" />
<glyph unicode="&#xb4;" horiz-adv-x="849" d="M164 1569l184 295h359l-306 -295h-237z" />
<glyph unicode="&#xb6;" horiz-adv-x="1710" d="M102 770v377q0 146 70.5 216.5t216.5 70.5h1159v-1434h-295v1155h-180v-1155h-295v483h-389q-146 0 -216.5 70.5t-70.5 216.5z" />
<glyph unicode="&#xb7;" horiz-adv-x="512" d="M92 502v319h328v-319h-328z" />
<glyph unicode="&#xb8;" horiz-adv-x="1157" d="M223 -168h211q23 0 32 9t9 32v127h213v-135q0 -109 -46 -151t-146 -42h-170z" />
<glyph unicode="&#xb9;" horiz-adv-x="514" d="M41 1413v158l217 92h152v-811h-193v610z" />
<glyph unicode="&#xba;" horiz-adv-x="794" d="M96 899v350q0 94 45 139.5t140 45.5h233q94 0 139 -45t45 -140v-350q0 -94 -44.5 -139t-139.5 -45h-233q-94 0 -139.5 45t-45.5 139zM113 446v158h569v-158h-569zM279 905q0 -13 5.5 -18.5t18.5 -5.5h189q14 0 19 5.5t5 18.5v338q0 25 -24 25h-189q-24 0 -24 -25v-338z " />
<glyph unicode="&#xbb;" horiz-adv-x="1093" d="M47 295l301 424l-301 426h295l262 -373v-106l-262 -371h-295zM506 295l301 424l-301 426h295l262 -373v-106l-262 -371h-295z" />
<glyph unicode="&#xbc;" horiz-adv-x="1660" d="M41 1188v158l217 92h152v-811h-193v610zM207 0l844 1475h204l-843 -1475h-205zM864 291l469 520h160v-494h123v-170h-123v-147h-188v147h-398zM1102 317h203v205z" />
<glyph unicode="&#xbd;" horiz-adv-x="1687" d="M41 1188v158l217 92h152v-811h-193v610zM207 0l844 1475h204l-843 -1475h-205zM1018 0h608v184h-414v64q0 25 41 35l195 57q36 10 59.5 19.5t54 27.5t46.5 47t16 68v125q0 97 -43.5 140.5t-140.5 43.5h-228q-96 0 -140 -44t-44 -140v-70h186v45q0 15 5 20t20 5h166 q15 0 20 -5t5 -20v-49q0 -15 -8 -21t-33 -14l-195 -57q-43 -13 -67 -22.5t-53 -28t-42.5 -46t-13.5 -65.5v-299z" />
<glyph unicode="&#xbe;" horiz-adv-x="1886" d="M51 860v19h195v-5q0 -51 4 -62t20 -11h187q16 0 20 11t4 62q0 52 -4 64t-20 12h-187v170h176q16 0 20.5 11.5t4.5 56.5t-4.5 56t-20.5 11h-167q-16 0 -20.5 -11t-4.5 -56v-10h-193v22q0 129 43.5 181.5t141.5 52.5h233q98 0 141.5 -52t43.5 -182q0 -75 -15.5 -107.5 t-60.5 -56.5q49 -22 67.5 -58.5t18.5 -117.5q0 -132 -43 -184.5t-142 -52.5h-253q-99 0 -142 52t-43 185zM432 0l844 1475h205l-844 -1475h-205zM1090 291l469 520h159v-494h123v-170h-123v-147h-188v147h-397zM1327 317h203v205z" />
<glyph unicode="&#xbf;" horiz-adv-x="1155" d="M72 -41v207q0 21 4 41t16 39t21 33t31.5 33t34 29t42.5 30t43 27.5t49.5 29.5t48.5 29l82 49q28 17 39.5 25t21 19.5t9.5 24.5v93h295v-154q0 -20 -5 -39t-17 -38t-23 -34t-33 -34t-36 -31t-43 -31.5t-44 -28.5t-48 -30t-46 -29l-78 -49q-39 -24 -54 -38t-15 -32v-116 q0 -23 9 -32t32 -9h376q23 0 32 9t9 32v139h295v-164q0 -146 -70 -216.5t-216 -70.5h-476q-146 0 -216 70.5t-70 216.5zM514 811v295h295v-295h-295z" />
<glyph unicode="&#xc0;" d="M33 0l436 1434h430l436 -1434h-323l-88 311h-492l-88 -311h-311zM295 1864h358l185 -295h-238zM508 582h340l-170 602z" />
<glyph unicode="&#xc1;" d="M33 0l436 1434h430l436 -1434h-323l-88 311h-492l-88 -311h-311zM508 582h340l-170 602zM530 1569l185 295h358l-305 -295h-238z" />
<glyph unicode="&#xc2;" d="M33 0l436 1434h430l436 -1434h-323l-88 311h-492l-88 -311h-311zM295 1569l266 266h246l266 -266h-264l-125 129l-125 -129h-264zM508 582h340l-170 602z" />
<glyph unicode="&#xc3;" d="M33 0l436 1434h430l436 -1434h-323l-88 311h-492l-88 -311h-311zM354 1565v51q0 113 48.5 171t123.5 58q52 0 107 -23.5t103 -47t83 -23.5q43 0 43 43v39h156v-51q0 -114 -43 -172t-117 -58q-60 0 -162.5 47.5t-142.5 47.5q-24 0 -35.5 -9t-11.5 -34v-39h-152zM508 582 h340l-170 602z" />
<glyph unicode="&#xc4;" d="M33 0l436 1434h430l436 -1434h-323l-88 311h-492l-88 -311h-311zM344 1569v262h266v-262h-266zM508 582h340l-170 602zM758 1569v262h266v-262h-266z" />
<glyph unicode="&#xc5;" d="M33 0l436 1434h430l436 -1434h-323l-88 311h-492l-88 -311h-311zM487 1692v123q0 64 29 93t94 29h148q65 0 94 -29t29 -93v-123q0 -64 -29.5 -93.5t-93.5 -29.5h-148q-64 0 -93.5 29.5t-29.5 93.5zM508 582h340l-170 602zM614 1708q0 -15 5 -20t20 -5h90q15 0 20 5t5 20 v90q0 15 -5 20t-20 5h-90q-15 0 -20 -5t-5 -20v-90z" />
<glyph unicode="&#xc6;" horiz-adv-x="2076" d="M6 0l744 1434h1228v-271h-669v-295h542v-270h-542v-328h669v-270h-964v324h-514l-160 -324h-334zM633 594h381v565h-103z" />
<glyph unicode="&#xc7;" horiz-adv-x="1275" d="M127 287v860q0 146 70.5 216.5t216.5 70.5h475q146 0 216.5 -70.5t70.5 -216.5v-234h-295v209q0 23 -9 32t-32 9h-377q-23 0 -32 -9t-9 -32v-811q0 -23 9 -32t32 -9h377q23 0 32 9t9 32v209h295v-233q0 -146 -70.5 -216.5t-216.5 -70.5h-117v-135q0 -109 -46 -151 t-146 -42h-170l-103 160h211q23 0 32 9t9 32v127h-145q-146 0 -216.5 70.5t-70.5 216.5z" />
<glyph unicode="&#xc8;" horiz-adv-x="1224" d="M162 0v1434h964v-271h-669v-297h542v-266h-542v-330h669v-270h-964zM260 1864l305 -295h238l-185 295h-358z" />
<glyph unicode="&#xc9;" horiz-adv-x="1224" d="M162 0v1434h964v-271h-669v-297h542v-266h-542v-330h669v-270h-964zM496 1569l184 295h358l-305 -295h-237z" />
<glyph unicode="&#xca;" horiz-adv-x="1224" d="M162 0v1434h964v-271h-669v-297h542v-266h-542v-330h669v-270h-964zM260 1569h264l125 129l125 -129h264l-266 266h-246z" />
<glyph unicode="&#xcb;" horiz-adv-x="1224" d="M162 0v1434h964v-271h-669v-297h542v-266h-542v-330h669v-270h-964zM309 1569v262h266v-262h-266zM723 1569v262h266v-262h-266z" />
<glyph unicode="&#xcc;" horiz-adv-x="618" d="M-80 1864l305 -295h238l-184 295h-359zM162 0v1434h295v-1434h-295z" />
<glyph unicode="&#xcd;" horiz-adv-x="618" d="M156 1569l184 295h358l-305 -295h-237zM162 0v1434h295v-1434h-295z" />
<glyph unicode="&#xce;" horiz-adv-x="618" d="M-80 1569h264l125 129l125 -129h264l-266 266h-246zM162 0v1434h295v-1434h-295z" />
<glyph unicode="&#xcf;" horiz-adv-x="618" d="M-31 1569v262h267v-262h-267zM162 0v1434h295v-1434h-295zM383 1569v262h266v-262h-266z" />
<glyph unicode="&#xd0;" horiz-adv-x="1343" d="M-2 594v295h147v545h785q146 0 216.5 -70.5t70.5 -216.5v-860q0 -146 -70.5 -216.5t-216.5 -70.5h-785v594h-147zM440 270h441q23 0 32 9t9 32v811q0 23 -9 32t-32 9h-441v-274h148v-295h-148v-324z" />
<glyph unicode="&#xd1;" horiz-adv-x="1460" d="M162 0v1434h307l543 -924v924h286v-1434h-286l-563 956v-956h-287zM401 1565h152v39q0 25 11.5 34t35.5 9q40 0 142.5 -47.5t162.5 -47.5q74 0 117 58t43 172v51h-156v-39q0 -43 -43 -43q-35 0 -83 23.5t-103 47t-107 23.5q-75 0 -123.5 -58t-48.5 -171v-51z" />
<glyph unicode="&#xd2;" horiz-adv-x="1353" d="M127 287v860q0 146 70.5 216.5t216.5 70.5h526q146 0 216.5 -70.5t70.5 -216.5v-860q0 -146 -70.5 -216.5t-216.5 -70.5h-526q-146 0 -216.5 70.5t-70.5 216.5zM289 1864l305 -295h237l-184 295h-358zM422 311q0 -23 9 -32t32 -9h428q23 0 32 9t9 32v811q0 23 -9 32 t-32 9h-428q-23 0 -32 -9t-9 -32v-811z" />
<glyph unicode="&#xd3;" horiz-adv-x="1353" d="M127 287v860q0 146 70.5 216.5t216.5 70.5h526q146 0 216.5 -70.5t70.5 -216.5v-860q0 -146 -70.5 -216.5t-216.5 -70.5h-526q-146 0 -216.5 70.5t-70.5 216.5zM422 311q0 -23 9 -32t32 -9h428q23 0 32 9t9 32v811q0 23 -9 32t-32 9h-428q-23 0 -32 -9t-9 -32v-811z M524 1569l185 295h358l-305 -295h-238z" />
<glyph unicode="&#xd4;" horiz-adv-x="1353" d="M127 287v860q0 146 70.5 216.5t216.5 70.5h526q146 0 216.5 -70.5t70.5 -216.5v-860q0 -146 -70.5 -216.5t-216.5 -70.5h-526q-146 0 -216.5 70.5t-70.5 216.5zM289 1569h264l125 129l125 -129h264l-266 266h-246zM422 311q0 -23 9 -32t32 -9h428q23 0 32 9t9 32v811 q0 23 -9 32t-32 9h-428q-23 0 -32 -9t-9 -32v-811z" />
<glyph unicode="&#xd5;" horiz-adv-x="1353" d="M127 287v860q0 146 70.5 216.5t216.5 70.5h526q146 0 216.5 -70.5t70.5 -216.5v-860q0 -146 -70.5 -216.5t-216.5 -70.5h-526q-146 0 -216.5 70.5t-70.5 216.5zM348 1565h152v39q0 25 11.5 34t35.5 9q40 0 142.5 -47.5t162.5 -47.5q74 0 117 58t43 172v51h-156v-39 q0 -43 -43 -43q-35 0 -83 23.5t-103 47t-107 23.5q-75 0 -123.5 -58t-48.5 -171v-51zM422 311q0 -23 9 -32t32 -9h428q23 0 32 9t9 32v811q0 23 -9 32t-32 9h-428q-23 0 -32 -9t-9 -32v-811z" />
<glyph unicode="&#xd6;" horiz-adv-x="1353" d="M127 287v860q0 146 70.5 216.5t216.5 70.5h526q146 0 216.5 -70.5t70.5 -216.5v-860q0 -146 -70.5 -216.5t-216.5 -70.5h-526q-146 0 -216.5 70.5t-70.5 216.5zM338 1569v262h266v-262h-266zM422 311q0 -23 9 -32t32 -9h428q23 0 32 9t9 32v811q0 23 -9 32t-32 9h-428 q-23 0 -32 -9t-9 -32v-811zM752 1569v262h266v-262h-266z" />
<glyph unicode="&#xd7;" horiz-adv-x="1040" d="M127 457l227 227l-227 225l168 168l227 -225l226 225l167 -168l-225 -225l225 -227l-167 -168l-226 227l-227 -227z" />
<glyph unicode="&#xd8;" horiz-adv-x="1329" d="M127 287v860q0 146 70.5 216.5t216.5 70.5h409l49 122h254l-59 -149q135 -59 135 -260v-860q0 -146 -70.5 -216.5t-216.5 -70.5h-413l-49 -123h-254l61 152q-133 61 -133 258zM422 434l293 729h-252q-23 0 -32 -9t-9 -32v-688zM610 270h256q23 0 32 9t9 32v699z" />
<glyph unicode="&#xd9;" d="M147 287v1147h295v-1123q0 -23 9 -32t32 -9h402q23 0 32 9t9 32v1123h295v-1147q0 -146 -70.5 -216.5t-216.5 -70.5h-500q-146 0 -216.5 70.5t-70.5 216.5zM295 1864l305 -295h238l-185 295h-358z" />
<glyph unicode="&#xda;" d="M147 287v1147h295v-1123q0 -23 9 -32t32 -9h402q23 0 32 9t9 32v1123h295v-1147q0 -146 -70.5 -216.5t-216.5 -70.5h-500q-146 0 -216.5 70.5t-70.5 216.5zM530 1569l185 295h358l-305 -295h-238z" />
<glyph unicode="&#xdb;" d="M147 287v1147h295v-1123q0 -23 9 -32t32 -9h402q23 0 32 9t9 32v1123h295v-1147q0 -146 -70.5 -216.5t-216.5 -70.5h-500q-146 0 -216.5 70.5t-70.5 216.5zM295 1569h264l125 129l125 -129h264l-266 266h-246z" />
<glyph unicode="&#xdc;" d="M147 287v1147h295v-1123q0 -23 9 -32t32 -9h402q23 0 32 9t9 32v1123h295v-1147q0 -146 -70.5 -216.5t-216.5 -70.5h-500q-146 0 -216.5 70.5t-70.5 216.5zM344 1569v262h266v-262h-266zM758 1569v262h266v-262h-266z" />
<glyph unicode="&#xdd;" horiz-adv-x="1253" d="M12 1434h320l297 -639l297 639h315l-467 -945v-489h-295v489zM475 1569l184 295h359l-305 -295h-238z" />
<glyph unicode="&#xde;" horiz-adv-x="1282" d="M162 0v1434h295v-250h463q146 0 216 -70.5t70 -216.5v-340q0 -146 -70 -216.5t-216 -70.5h-463v-270h-295zM457 541h413q23 0 32 9t9 32v290q0 23 -9 32t-32 9h-413v-372z" />
<glyph unicode="&#xdf;" horiz-adv-x="1177" d="M125 0v1229q0 136 65.5 201t200.5 65h393q95 0 151 -33.5t86 -119.5t30 -238q0 -155 -28 -225t-101 -113q80 -38 112.5 -113t32.5 -243q0 -160 -29.5 -250.5t-85.5 -125t-151 -34.5h-277v246h211q19 0 27 10.5t13 53.5t5 136t-5 136.5t-13 54t-27 10.5h-211v238h195 q19 0 27 10t13 49t5 123t-5 123t-13 49t-27 10h-266q-25 0 -35 -10t-10 -35v-1204h-283z" />
<glyph unicode="&#xe0;" horiz-adv-x="1134" d="M86 309q0 165 72.5 242.5t214.5 97.5q194 26 356 33v147q0 25 -10 35t-35 10h-238q-25 0 -35 -10t-10 -35v-65h-278v76q0 136 64.5 201t201.5 65h356q137 0 202 -65t65 -201v-840h-283v172q-33 -45 -58.5 -72t-65.5 -55t-94.5 -40.5t-127.5 -12.5q-160 0 -228.5 73 t-68.5 244zM193 1536l305 -295h237l-184 295h-358zM365 338q0 -66 13.5 -85.5t59.5 -19.5q48 0 88 6t79.5 21.5t59 25t64.5 33.5v183l-293 -56q-42 -8 -56.5 -28t-14.5 -80z" />
<glyph unicode="&#xe1;" horiz-adv-x="1134" d="M86 309q0 165 72.5 242.5t214.5 97.5q194 26 356 33v147q0 25 -10 35t-35 10h-238q-25 0 -35 -10t-10 -35v-65h-278v76q0 136 64.5 201t201.5 65h356q137 0 202 -65t65 -201v-840h-283v172q-33 -45 -58.5 -72t-65.5 -55t-94.5 -40.5t-127.5 -12.5q-160 0 -228.5 73 t-68.5 244zM365 338q0 -66 13.5 -85.5t59.5 -19.5q48 0 88 6t79.5 21.5t59 25t64.5 33.5v183l-293 -56q-42 -8 -56.5 -28t-14.5 -80zM428 1241l184 295h359l-305 -295h-238z" />
<glyph unicode="&#xe2;" horiz-adv-x="1134" d="M86 309q0 165 72.5 242.5t214.5 97.5q194 26 356 33v147q0 25 -10 35t-35 10h-238q-25 0 -35 -10t-10 -35v-65h-278v76q0 136 64.5 201t201.5 65h356q137 0 202 -65t65 -201v-840h-283v172q-33 -45 -58.5 -72t-65.5 -55t-94.5 -40.5t-127.5 -12.5q-160 0 -228.5 73 t-68.5 244zM193 1241h264l125 129l125 -129h264l-266 266h-246zM365 338q0 -66 13.5 -85.5t59.5 -19.5q48 0 88 6t79.5 21.5t59 25t64.5 33.5v183l-293 -56q-42 -8 -56.5 -28t-14.5 -80z" />
<glyph unicode="&#xe3;" horiz-adv-x="1134" d="M86 309q0 165 72.5 242.5t214.5 97.5q194 26 356 33v147q0 25 -10 35t-35 10h-238q-25 0 -35 -10t-10 -35v-65h-278v76q0 136 64.5 201t201.5 65h356q137 0 202 -65t65 -201v-840h-283v172q-33 -45 -58.5 -72t-65.5 -55t-94.5 -40.5t-127.5 -12.5q-160 0 -228.5 73 t-68.5 244zM252 1237h151v39q0 25 12 34t36 9q40 0 142.5 -47t162.5 -47q73 0 116 57.5t43 171.5v51h-155v-39q0 -43 -43 -43q-35 0 -83 23.5t-103 47.5t-107 24q-75 0 -123.5 -58.5t-48.5 -171.5v-51zM365 338q0 -66 13.5 -85.5t59.5 -19.5q48 0 88 6t79.5 21.5t59 25 t64.5 33.5v183l-293 -56q-42 -8 -56.5 -28t-14.5 -80z" />
<glyph unicode="&#xe4;" horiz-adv-x="1134" d="M86 309q0 165 72.5 242.5t214.5 97.5q194 26 356 33v147q0 25 -10 35t-35 10h-238q-25 0 -35 -10t-10 -35v-65h-278v76q0 136 64.5 201t201.5 65h356q137 0 202 -65t65 -201v-840h-283v172q-33 -45 -58.5 -72t-65.5 -55t-94.5 -40.5t-127.5 -12.5q-160 0 -228.5 73 t-68.5 244zM242 1241v262h266v-262h-266zM365 338q0 -66 13.5 -85.5t59.5 -19.5q48 0 88 6t79.5 21.5t59 25t64.5 33.5v183l-293 -56q-42 -8 -56.5 -28t-14.5 -80zM655 1241v262h267v-262h-267z" />
<glyph unicode="&#xe5;" horiz-adv-x="1134" d="M86 309q0 165 72.5 242.5t214.5 97.5q194 26 356 33v147q0 25 -10 35t-35 10h-238q-25 0 -35 -10t-10 -35v-65h-278v76q0 136 64.5 201t201.5 65h356q137 0 202 -65t65 -201v-840h-283v172q-33 -45 -58.5 -72t-65.5 -55t-94.5 -40.5t-127.5 -12.5q-160 0 -228.5 73 t-68.5 244zM365 338q0 -66 13.5 -85.5t59.5 -19.5q48 0 88 6t79.5 21.5t59 25t64.5 33.5v183l-293 -56q-42 -8 -56.5 -28t-14.5 -80zM385 1364v123q0 65 29.5 94t93.5 29h147q65 0 94 -29t29 -94v-123q0 -64 -29 -93.5t-94 -29.5h-147q-64 0 -93.5 29.5t-29.5 93.5z M512 1380q0 -15 5 -19.5t20 -4.5h90q15 0 19.5 4.5t4.5 19.5v90q0 15 -4.5 20t-19.5 5h-90q-15 0 -20 -5t-5 -20v-90z" />
<glyph unicode="&#xe6;" horiz-adv-x="1746" d="M86 313q0 165 72 240.5t215 95.5q194 26 356 33v147q0 25 -10 35t-35 10h-238q-25 0 -35 -10t-10 -35v-65h-278v76q0 136 64.5 201t201.5 65h336q56 0 95 -20.5t50 -51.5q11 31 50.5 51.5t95.5 20.5h362q137 0 202 -65t65 -201v-367h-633v-199q0 -25 10 -35t35 -10h260 q25 0 35 10t10 35v86h283v-94q0 -136 -65 -201t-202 -65h-383q-113 0 -176 43.5t-82 134.5q-49 -81 -137 -133.5t-217 -52.5q-160 0 -228.5 74.5t-68.5 246.5zM365 342q0 -67 14 -88t59 -21q92 0 154 19t137 59v191l-293 -56q-43 -8 -57 -26t-14 -78zM1012 664h350v167 q0 25 -10 35.5t-35 10.5h-260q-25 0 -35 -10.5t-10 -35.5v-167z" />
<glyph unicode="&#xe7;" horiz-adv-x="1087" d="M111 266v574q0 136 64.5 201t201.5 65h354q137 0 201.5 -65t64.5 -201v-140h-282v115q0 25 -10 35t-35 10h-232q-25 0 -35 -10t-10 -35v-524q0 -25 10 -35t35 -10h232q25 0 35 10t10 35v115h282v-140q0 -136 -64.5 -201t-201.5 -65h-59v-135q0 -109 -46.5 -151 t-146.5 -42h-170l-102 160h211q23 0 32 9t9 32v127h-82q-137 0 -201.5 65t-64.5 201z" />
<glyph unicode="&#xe8;" horiz-adv-x="1128" d="M111 266v574q0 136 64.5 201t201.5 65h383q136 0 201 -65t65 -201v-367h-633v-199q0 -25 10 -35t35 -10h260q25 0 35 10t10 35v86h283v-94q0 -136 -65 -201t-201 -65h-383q-137 0 -201.5 65t-64.5 201zM180 1536h359l184 -295h-238zM393 664h350v167q0 25 -10 35.5 t-35 10.5h-260q-25 0 -35 -10.5t-10 -35.5v-167z" />
<glyph unicode="&#xe9;" horiz-adv-x="1128" d="M111 266v574q0 136 64.5 201t201.5 65h383q136 0 201 -65t65 -201v-367h-633v-199q0 -25 10 -35t35 -10h260q25 0 35 10t10 35v86h283v-94q0 -136 -65 -201t-201 -65h-383q-137 0 -201.5 65t-64.5 201zM393 664h350v167q0 25 -10 35.5t-35 10.5h-260q-25 0 -35 -10.5 t-10 -35.5v-167zM416 1241l184 295h358l-305 -295h-237z" />
<glyph unicode="&#xea;" horiz-adv-x="1128" d="M111 266v574q0 136 64.5 201t201.5 65h383q136 0 201 -65t65 -201v-367h-633v-199q0 -25 10 -35t35 -10h260q25 0 35 10t10 35v86h283v-94q0 -136 -65 -201t-201 -65h-383q-137 0 -201.5 65t-64.5 201zM180 1241l266 266h246l266 -266h-264l-125 129l-125 -129h-264z M393 664h350v167q0 25 -10 35.5t-35 10.5h-260q-25 0 -35 -10.5t-10 -35.5v-167z" />
<glyph unicode="&#xeb;" horiz-adv-x="1128" d="M111 266v574q0 136 64.5 201t201.5 65h383q136 0 201 -65t65 -201v-367h-633v-199q0 -25 10 -35t35 -10h260q25 0 35 10t10 35v86h283v-94q0 -136 -65 -201t-201 -65h-383q-137 0 -201.5 65t-64.5 201zM229 1241v262h267v-262h-267zM393 664h350v167q0 25 -10 35.5 t-35 10.5h-260q-25 0 -35 -10.5t-10 -35.5v-167zM643 1241v262h266v-262h-266z" />
<glyph unicode="&#xec;" horiz-adv-x="548" d="M-86 1495l305 -295h238l-185 295h-358zM133 0v1106h283v-1106h-283z" />
<glyph unicode="&#xed;" horiz-adv-x="548" d="M102 1200l185 295h358l-305 -295h-238zM133 0v1106h283v-1106h-283z" />
<glyph unicode="&#xee;" horiz-adv-x="548" d="M-115 1200h265l124 129l125 -129h265l-267 266h-245zM133 0v1106h283v-1106h-283z" />
<glyph unicode="&#xef;" horiz-adv-x="548" d="M-66 1200v262h267v-262h-267zM133 0v1106h283v-1106h-283zM348 1200v262h266v-262h-266z" />
<glyph unicode="&#xf0;" horiz-adv-x="1167" d="M111 266v479q0 153 70.5 220t236.5 67q77 0 133.5 -11.5t97 -37t67 -52.5t58.5 -71v205q0 50 -13.5 70.5t-55.5 35.5l-84 31l-78 -78h-238l139 142l-165 61v172l319 -78l86 88h238l-134 -135q82 -20 135.5 -49.5t82.5 -72t40 -90.5t11 -118v-778q0 -136 -64.5 -201 t-201.5 -65h-414q-137 0 -201.5 65t-64.5 201zM393 291q0 -25 10 -35t35 -10h291q25 0 35 10t10 35v422q-66 35 -131 50t-168 15q-52 0 -67 -12.5t-15 -52.5v-422z" />
<glyph unicode="&#xf1;" horiz-adv-x="1185" d="M133 0v1106h283v-162q32 44 58 71t66.5 52.5t95 37t128.5 11.5q160 0 229.5 -65t69.5 -209v-842h-283v809q0 31 -14 42t-57 11q-99 0 -163 -15t-130 -50v-797h-283zM266 1237h152v39q0 25 11.5 34t35.5 9q40 0 142.5 -47t162.5 -47q74 0 117 57.5t43 171.5v51h-156v-39 q0 -43 -43 -43q-35 0 -83 23.5t-103 47.5t-107 24q-75 0 -123.5 -58.5t-48.5 -171.5v-51z" />
<glyph unicode="&#xf2;" horiz-adv-x="1148" d="M111 266v574q0 136 64.5 201t201.5 65h395q136 0 201 -65t65 -201v-574q0 -136 -65 -201t-201 -65h-395q-137 0 -201.5 65t-64.5 201zM186 1536l306 -295h237l-184 295h-359zM393 291q0 -25 10 -35t35 -10h273q25 0 35 10t10 35v524q0 25 -10 35t-35 10h-273 q-25 0 -35 -10t-10 -35v-524z" />
<glyph unicode="&#xf3;" horiz-adv-x="1148" d="M111 266v574q0 136 64.5 201t201.5 65h395q136 0 201 -65t65 -201v-574q0 -136 -65 -201t-201 -65h-395q-137 0 -201.5 65t-64.5 201zM393 291q0 -25 10 -35t35 -10h273q25 0 35 10t10 35v524q0 25 -10 35t-35 10h-273q-25 0 -35 -10t-10 -35v-524zM422 1241l184 295h359 l-306 -295h-237z" />
<glyph unicode="&#xf4;" horiz-adv-x="1148" d="M111 266v574q0 136 64.5 201t201.5 65h395q136 0 201 -65t65 -201v-574q0 -136 -65 -201t-201 -65h-395q-137 0 -201.5 65t-64.5 201zM186 1241h265l124 129l125 -129h265l-267 266h-245zM393 291q0 -25 10 -35t35 -10h273q25 0 35 10t10 35v524q0 25 -10 35t-35 10h-273 q-25 0 -35 -10t-10 -35v-524z" />
<glyph unicode="&#xf5;" horiz-adv-x="1148" d="M111 266v574q0 136 64.5 201t201.5 65h395q136 0 201 -65t65 -201v-574q0 -136 -65 -201t-201 -65h-395q-137 0 -201.5 65t-64.5 201zM246 1237h151v39q0 25 11.5 34t35.5 9q40 0 143 -47t163 -47q73 0 116 57.5t43 171.5v51h-155v-39q0 -43 -43 -43q-35 0 -83 23.5 t-103 47.5t-107 24q-75 0 -123.5 -58.5t-48.5 -171.5v-51zM393 291q0 -25 10 -35t35 -10h273q25 0 35 10t10 35v524q0 25 -10 35t-35 10h-273q-25 0 -35 -10t-10 -35v-524z" />
<glyph unicode="&#xf6;" horiz-adv-x="1148" d="M111 266v574q0 136 64.5 201t201.5 65h395q136 0 201 -65t65 -201v-574q0 -136 -65 -201t-201 -65h-395q-137 0 -201.5 65t-64.5 201zM236 1241v262h266v-262h-266zM393 291q0 -25 10 -35t35 -10h273q25 0 35 10t10 35v524q0 25 -10 35t-35 10h-273q-25 0 -35 -10 t-10 -35v-524zM649 1241v262h266v-262h-266z" />
<glyph unicode="&#xf7;" horiz-adv-x="1040" d="M74 621v274h893v-274h-893zM385 207v270h270v-270h-270zM385 1038v271h270v-271h-270z" />
<glyph unicode="&#xf8;" horiz-adv-x="1132" d="M111 266v574q0 136 64.5 201t201.5 65h307l49 123h205l-55 -142q139 -52 139 -247v-574q0 -136 -65 -201t-201 -65h-299l-49 -123h-205l55 139q-147 49 -147 250zM393 362l195 498h-150q-25 0 -35 -10t-10 -35v-453zM553 246h141q25 0 35 10t10 35v432z" />
<glyph unicode="&#xf9;" horiz-adv-x="1185" d="M123 264v842h283v-809q0 -31 14 -42t57 -11q99 0 163 15t130 50v797h283v-1106h-283v162q-32 -44 -58 -71t-66.5 -52.5t-95 -37t-128.5 -11.5q-160 0 -229.5 65t-69.5 209zM180 1536l305 -295h238l-184 295h-359z" />
<glyph unicode="&#xfa;" horiz-adv-x="1185" d="M123 264v842h283v-809q0 -31 14 -42t57 -11q99 0 163 15t130 50v797h283v-1106h-283v162q-32 -44 -58 -71t-66.5 -52.5t-95 -37t-128.5 -11.5q-160 0 -229.5 65t-69.5 209zM416 1241l184 295h358l-305 -295h-237z" />
<glyph unicode="&#xfb;" horiz-adv-x="1185" d="M123 264v842h283v-809q0 -31 14 -42t57 -11q99 0 163 15t130 50v797h283v-1106h-283v162q-32 -44 -58 -71t-66.5 -52.5t-95 -37t-128.5 -11.5q-160 0 -229.5 65t-69.5 209zM180 1241h264l125 129l125 -129h264l-266 266h-246z" />
<glyph unicode="&#xfc;" horiz-adv-x="1185" d="M123 264v842h283v-809q0 -31 14 -42t57 -11q99 0 163 15t130 50v797h283v-1106h-283v162q-32 -44 -58 -71t-66.5 -52.5t-95 -37t-128.5 -11.5q-160 0 -229.5 65t-69.5 209zM229 1241v262h267v-262h-267zM643 1241v262h266v-262h-266z" />
<glyph unicode="&#xfd;" horiz-adv-x="1114" d="M31 1106h303l229 -809l230 809h290l-497 -1434h-273l107 328zM416 1241l184 295h358l-305 -295h-237z" />
<glyph unicode="&#xfe;" horiz-adv-x="1189" d="M133 -328v1823h283v-553q32 44 58.5 71t67 52.5t97 37t133.5 11.5q166 0 236.5 -67t70.5 -220v-548q0 -153 -70.5 -220t-236.5 -67q-77 0 -133.5 11.5t-97 37t-67 52.5t-58.5 71v-492h-283zM416 311q66 -35 131 -50t168 -15q52 0 67 12.5t15 52.5v484q0 40 -15 52.5 t-67 12.5q-103 0 -168 -15t-131 -50v-484z" />
<glyph unicode="&#xff;" horiz-adv-x="1114" d="M31 1106h303l229 -809l230 809h290l-497 -1434h-273l107 328zM229 1241v262h267v-262h-267zM643 1241v262h266v-262h-266z" />
<glyph unicode="&#x152;" horiz-adv-x="1970" d="M127 287v860q0 146 70.5 216.5t216.5 70.5h1458v-271h-670v-295h543v-270h-543v-328h670v-270h-1458q-146 0 -216.5 70.5t-70.5 216.5zM422 311q0 -23 9 -32t32 -9h444v893h-444q-23 0 -32 -9t-9 -32v-811z" />
<glyph unicode="&#x153;" horiz-adv-x="1773" d="M111 266v574q0 136 64.5 201t201.5 65h375q57 0 95.5 -20t49.5 -52q11 32 49.5 52t95.5 20h363q137 0 201.5 -65t64.5 -201v-367h-633v-199q0 -25 10 -35t35 -10h260q25 0 35.5 10t10.5 35v86h282v-94q0 -136 -64.5 -201t-201.5 -65h-363q-57 0 -95.5 20t-49.5 52 q-11 -32 -49.5 -52t-95.5 -20h-375q-137 0 -201.5 65t-64.5 201zM393 291q0 -25 10 -35t35 -10h273q25 0 35 10t10 35v524q0 25 -10 35t-35 10h-273q-25 0 -35 -10t-10 -35v-524zM1038 664h351v167q0 25 -10.5 35.5t-35.5 10.5h-260q-25 0 -35 -10.5t-10 -35.5v-167z" />
<glyph unicode="&#x178;" horiz-adv-x="1253" d="M12 1434h320l297 -639l297 639h315l-467 -945v-489h-295v489zM289 1569v262h266v-262h-266zM702 1569v262h267v-262h-267z" />
<glyph unicode="&#x2c6;" horiz-adv-x="1351" d="M287 1569h264l125 129l125 -129h264l-266 266h-246z" />
<glyph unicode="&#x2dc;" horiz-adv-x="1249" d="M293 1565h151v39q0 25 12 34t36 9q40 0 142.5 -47.5t162.5 -47.5q73 0 116 57.5t43 172.5v51h-155v-39q0 -43 -43 -43q-35 0 -83 23.5t-103 47t-107 23.5q-75 0 -123.5 -58t-48.5 -171v-51z" />
<glyph unicode="&#x2000;" horiz-adv-x="968" />
<glyph unicode="&#x2001;" horiz-adv-x="1937" />
<glyph unicode="&#x2002;" horiz-adv-x="968" />
<glyph unicode="&#x2003;" horiz-adv-x="1937" />
<glyph unicode="&#x2004;" horiz-adv-x="645" />
<glyph unicode="&#x2005;" horiz-adv-x="484" />
<glyph unicode="&#x2006;" horiz-adv-x="322" />
<glyph unicode="&#x2007;" horiz-adv-x="322" />
<glyph unicode="&#x2008;" horiz-adv-x="242" />
<glyph unicode="&#x2009;" horiz-adv-x="387" />
<glyph unicode="&#x200a;" horiz-adv-x="107" />
<glyph unicode="&#x2010;" horiz-adv-x="905" d="M104 543v262h697v-262h-697z" />
<glyph unicode="&#x2011;" horiz-adv-x="905" d="M104 543v262h697v-262h-697z" />
<glyph unicode="&#x2012;" horiz-adv-x="905" d="M104 543v262h697v-262h-697z" />
<glyph unicode="&#x2013;" horiz-adv-x="1150" d="M104 543v262h943v-262h-943z" />
<glyph unicode="&#x2014;" horiz-adv-x="1642" d="M104 543v262h1434v-262h-1434z" />
<glyph unicode="&#x2018;" horiz-adv-x="512" d="M92 840v221q0 59 21.5 104.5t76.5 108.5l142 160h114l-157 -275h131v-319h-328z" />
<glyph unicode="&#x2019;" horiz-adv-x="512" d="M66 840l157 274h-131v320h328v-222q0 -59 -21.5 -104.5t-76.5 -108.5l-142 -159h-114z" />
<glyph unicode="&#x201a;" horiz-adv-x="512" d="M66 -274l157 274h-131v319h328v-221q0 -59 -21.5 -104.5t-76.5 -108.5l-142 -159h-114z" />
<glyph unicode="&#x201c;" horiz-adv-x="933" d="M92 840v221q0 59 21.5 104.5t76.5 108.5l142 160h114l-157 -275h131v-319h-328zM514 840v221q0 59 21.5 104.5t76.5 108.5l142 160h114l-157 -275h131v-319h-328z" />
<glyph unicode="&#x201d;" horiz-adv-x="933" d="M66 840l157 274h-131v320h328v-222q0 -59 -21.5 -104.5t-76.5 -108.5l-142 -159h-114zM487 840l158 274h-131v320h328v-222q0 -59 -22 -104.5t-77 -108.5l-141 -159h-115z" />
<glyph unicode="&#x201e;" horiz-adv-x="933" d="M66 -274l157 274h-131v319h328v-221q0 -59 -21.5 -104.5t-76.5 -108.5l-142 -159h-114zM487 -274l158 274h-131v319h328v-221q0 -59 -22 -104.5t-77 -108.5l-141 -159h-115z" />
<glyph unicode="&#x2022;" horiz-adv-x="876" d="M209 741q0 129 50 179.5t179 50.5t179.5 -50.5t50.5 -179.5t-50.5 -179t-179.5 -50t-179 50t-50 179z" />
<glyph unicode="&#x2026;" horiz-adv-x="1413" d="M92 0v319h328v-319h-328zM543 0v319h327v-319h-327zM993 0v319h328v-319h-328z" />
<glyph unicode="&#x202f;" horiz-adv-x="387" />
<glyph unicode="&#x2039;" horiz-adv-x="634" d="M31 666v106l262 373h295l-301 -426l301 -424h-295z" />
<glyph unicode="&#x203a;" horiz-adv-x="634" d="M47 295l301 424l-301 426h295l262 -373v-106l-262 -371h-295z" />
<glyph unicode="&#x205f;" horiz-adv-x="484" />
<glyph unicode="&#x20ac;" horiz-adv-x="1359" d="M51 504v145h160v135h-160v146h160v217q0 146 70.5 216.5t216.5 70.5h475q146 0 216.5 -70.5t70.5 -216.5v-234h-295v209q0 23 -9 32t-32 9h-377q-23 0 -32 -9t-9 -32v-192h364v-146h-364v-135h364v-145h-364v-193q0 -23 9 -32t32 -9h377q23 0 32 9t9 32v209h295v-233 q0 -146 -70.5 -216.5t-216.5 -70.5h-475q-146 0 -216.5 70.5t-70.5 216.5v217h-160z" />
<glyph unicode="&#x2122;" horiz-adv-x="1548" d="M102 1290v144h533v-144h-191v-594h-153v594h-189zM748 696v738h167l181 -418l184 418h166v-738h-141v465l-158 -354h-100l-158 354v-465h-141z" />
<glyph unicode="&#x25fc;" horiz-adv-x="1105" d="M0 0v1106h1106v-1106h-1106z" />
</font>
</defs>
</svg>
